<?xml version="1.0" encoding="UTF-8"?>
<svg id="Layer_2" data-name="Layer 2" xmlns="http://www.w3.org/2000/svg" viewBox="0 0 700 700">
  <defs>
    <style>
      .cls-1 {
        fill: #fff;
      }
    </style>
  </defs>
  <g id="Layer_1-2" data-name="Layer 1">
    <path class="cls-1" d="m495.83,58.33c80.45.24,145.6,65.4,145.84,145.84v291.66c-.24,80.45-65.4,145.6-145.84,145.84H204.17c-80.45-.24-145.6-65.4-145.84-145.84V204.17c.24-80.45,65.4-145.6,145.84-145.84h291.66m0-58.33H204.17C91.88,0,0,91.88,0,204.17v291.66c0,112.3,91.88,204.17,204.17,204.17h291.66c112.3,0,204.17-91.87,204.17-204.17V204.17C700,91.88,608.13,0,495.83,0Z"/>
    <path class="cls-1" d="m539.58,204.17c-24.16,0-43.75-19.59-43.75-43.75s19.59-43.75,43.75-43.75,43.75,19.59,43.75,43.75c.05,24.11-19.45,43.7-43.56,43.75-.06,0-.13,0-.19,0Z"/>
    <path class="cls-1" d="m350,233.33c64.44,0,116.67,52.24,116.67,116.67s-52.24,116.67-116.67,116.67-116.67-52.24-116.67-116.67c.07-64.41,52.26-116.6,116.67-116.67m0-58.33c-96.65,0-175,78.35-175,175s78.35,175,175,175,175-78.35,175-175-78.35-175-175-175Z"/>
  </g>
</svg>