<?xml version="1.0" encoding="UTF-8"?>
<svg id="Layer_2" data-name="Layer 2" xmlns="http://www.w3.org/2000/svg" viewBox="0 0 800 560">
  <defs>
    <style>
      .cls-1 {
        fill: #fff;
        fill-rule: evenodd;
      }
    </style>
  </defs>
  <g id="Layer_1-2" data-name="Layer 1">
    <g id="Page-1">
      <g id="Dribbble-Light-Preview">
        <g id="icons">
          <path id="youtube-_168_" data-name="youtube-[#168]" class="cls-1" d="m319.54,383.43v-224.47c79.69,37.5,141.41,73.73,214.4,112.77-60.2,33.4-134.71,70.84-214.4,111.7M763.64,47.32c-13.75-18.12-37.18-32.21-62.12-36.88C628.21-3.46,170.84-3.5,97.57,10.44c-20,3.75-37.81,12.81-53.11,26.89C-20.01,97.18.19,418.06,15.73,470.03c6.53,22.5,14.98,38.73,25.62,49.38,13.71,14.08,32.47,23.79,54.03,28.12,60.36,12.5,371.35,19.47,604.87,1.88,21.52-3.75,40.56-13.75,55.58-28.44,59.61-59.59,55.54-398.52,7.81-473.65"/>
        </g>
      </g>
    </g>
  </g>
</svg>